<svg width="100" height="100" viewBox="0 0 100 100" fill="none" xmlns="http://www.w3.org/2000/svg">
<rect width="100" height="100" fill="black"/>
<path fill-rule="evenodd" clip-rule="evenodd" d="M72.809 46.6815L71.4716 51.6723C69.9108 57.4979 69.1301 60.4107 67.3608 62.2998C65.9637 63.7915 64.1556 64.8354 62.1654 65.2994C61.9167 65.3575 61.6643 65.4022 61.4054 65.4339C59.0414 65.7256 56.1571 64.9527 50.9062 63.5458C45.0806 61.9847 42.1677 61.2043 40.2786 59.4349C38.7869 58.0379 37.743 56.2298 37.279 54.2393C36.6912 51.7185 37.4717 48.8058 39.0327 42.9802L40.3699 37.9896C40.5943 37.152 40.8028 36.374 41.0002 35.6512C42.1758 31.3473 42.9658 28.9794 44.4807 27.362C45.8778 25.8703 47.6859 24.8265 49.6763 24.3624C52.1969 23.7746 55.1098 24.5551 60.9355 26.1161C66.7609 27.6771 69.6739 28.4575 71.5631 30.2269C73.0547 31.624 74.0986 33.4321 74.5626 35.4224C75.1503 37.9431 74.3699 40.856 72.809 46.6815ZM47.552 44.332C47.829 43.2984 48.8915 42.685 49.9251 42.9619L62.4016 46.3051C63.4352 46.5821 64.0484 47.6443 63.7715 48.6779C63.4946 49.7115 62.4323 50.3248 61.3987 50.0479L48.922 46.7048C47.8884 46.4278 47.2751 45.3656 47.552 44.332ZM45.5453 51.8169C45.8222 50.7833 46.8845 50.1701 47.9181 50.447L55.4041 52.453C56.4377 52.7299 57.051 53.7922 56.774 54.8257C56.4971 55.8593 55.4348 56.4729 54.4012 56.1959L46.9152 54.19C45.8817 53.9131 45.2681 52.8505 45.5453 51.8169Z" fill="white"/>
<path opacity="0.5" d="M61.4051 65.4341C60.8665 67.0831 59.9195 68.5749 58.6464 69.7674C56.7572 71.5367 53.8442 72.3172 48.0188 73.8783C42.1931 75.4391 39.2803 76.2198 36.7595 75.6318C34.7692 75.1679 32.9611 74.1239 31.5641 72.6323C29.7947 70.7431 29.0142 67.8304 27.4532 62.0047L26.116 57.0143C24.555 51.1886 23.7745 48.2756 24.3623 45.7551C24.8264 43.7646 25.8702 41.9566 27.3619 40.5595C29.251 38.7901 32.1639 38.0096 37.9895 36.4486C39.0916 36.1533 40.0895 35.8859 41.0002 35.6505C41.0003 35.6502 41.0001 35.6507 41.0002 35.6505C40.8028 36.3733 40.5943 37.152 40.3699 37.9896L39.0327 42.9802C37.4717 48.8057 36.6912 51.7187 37.279 54.2395C37.743 56.2297 38.7869 58.0378 40.2786 59.4348C42.1677 61.2042 45.0805 61.9849 50.9062 63.5457C56.1568 64.9526 59.0414 65.7255 61.4051 65.4341Z" fill="white"/>
</svg>
